<svg xmlns="http://www.w3.org/2000/svg" xmlns:xlink="http://www.w3.org/1999/xlink" viewBox="0 0 581.59 281.34"><defs><style>.cls-1{fill:url(#Sfumatura_senza_nome_14);}.cls-2{fill:url(#Sfumatura_senza_nome_14-2);}.cls-3{fill:url(#Sfumatura_senza_nome_14-3);}.cls-4{fill:url(#Sfumatura_senza_nome_14-4);}.cls-5{fill:url(#Sfumatura_senza_nome_14-5);}.cls-6{fill:url(#Sfumatura_senza_nome_14-6);}.cls-7{fill:url(#Sfumatura_senza_nome_14-7);}.cls-8{fill:url(#Sfumatura_senza_nome_14-8);}.cls-9{fill:url(#Sfumatura_senza_nome_14-9);}.cls-10{fill:url(#Sfumatura_senza_nome_14-10);}</style><linearGradient id="Sfumatura_senza_nome_14" x1="479.11" y1="152.59" x2="581.59" y2="152.59" gradientUnits="userSpaceOnUse"><stop offset="0" stop-color="#fff"/><stop offset="0" stop-color="#1096e8"/><stop offset="1" stop-color="#10e5e8"/></linearGradient><linearGradient id="Sfumatura_senza_nome_14-2" x1="337.28" y1="102.03" x2="440.32" y2="102.03" xlink:href="#Sfumatura_senza_nome_14"/><linearGradient id="Sfumatura_senza_nome_14-3" x1="153.69" y1="157.69" x2="153.87" y2="157.69" xlink:href="#Sfumatura_senza_nome_14"/><linearGradient id="Sfumatura_senza_nome_14-4" x1="31.03" y1="152.56" x2="134.07" y2="152.56" xlink:href="#Sfumatura_senza_nome_14"/><linearGradient id="Sfumatura_senza_nome_14-5" x1="0" y1="102.08" x2="23.27" y2="102.08" xlink:href="#Sfumatura_senza_nome_14"/><linearGradient id="Sfumatura_senza_nome_14-6" x1="123.77" y1="191.19" x2="236.52" y2="191.19" xlink:href="#Sfumatura_senza_nome_14"/><linearGradient id="Sfumatura_senza_nome_14-7" x1="123.77" y1="140.28" x2="180.14" y2="140.28" xlink:href="#Sfumatura_senza_nome_14"/><linearGradient id="Sfumatura_senza_nome_14-8" x1="226.48" y1="152.54" x2="329.52" y2="152.54" xlink:href="#Sfumatura_senza_nome_14"/><linearGradient id="Sfumatura_senza_nome_14-9" x1="448.08" y1="102.06" x2="471.35" y2="102.06" xlink:href="#Sfumatura_senza_nome_14"/><linearGradient id="Sfumatura_senza_nome_14-10" x1="215.27" y1="121.56" x2="223.03" y2="121.56" xlink:href="#Sfumatura_senza_nome_14"/></defs><title>logo</title><g id="Livello_2" data-name="Livello 2"><g id="Livello_1-2" data-name="Livello 1"><path class="cls-1" d="M519.37,157.83l33-15.38a3.93,3.93,0,0,0,1.61-5.76,28.25,28.25,0,1,0-39.57,39.05h0a28.24,28.24,0,0,0,28.15,2.47l39-18.2a51.25,51.25,0,1,1-.1-15.54L538.1,164.69a14.08,14.08,0,0,1-3.55,1.08,14.25,14.25,0,0,1-7.14-.63A14,14,0,0,1,519.37,157.83Z"/><path class="cls-2" d="M388.81,101a51.2,51.2,0,0,0-28.26,8.44V23.27A23.27,23.27,0,0,0,337.28,0V152.53A51.52,51.52,0,1,0,388.81,101ZM417,154c0,.46-.06.93-.11,1.39a28.25,28.25,0,0,1-56.05,1.37h0c-.06-.45-.12-.91-.17-1.37s-.08-.93-.1-1.39,0-1,0-1.46,0-.93,0-1.4a28.25,28.25,0,0,1,56.43,0c0,.47,0,.93,0,1.4S417,153.51,417,154Z"/><path class="cls-3" d="M153.87,157.69h-.18"/><path class="cls-4" d="M82.54,101a51.52,51.52,0,1,0,51.53,51.52A51.52,51.52,0,0,0,82.54,101Zm0,79.77a28.25,28.25,0,1,1,28.26-28.25A28.25,28.25,0,0,1,82.54,180.81Z"/><path class="cls-5" d="M23.27,23.35V204.08H0V.08A23.27,23.27,0,0,1,23.27,23.35Z"/><path class="cls-6" d="M236.52,104.09l-43,75.44L180.15,203l-44.62,78.31a23.27,23.27,0,0,1-8.71-31.73l39.94-70.08L180.14,156l24.65-43.24a23.26,23.26,0,0,1,31.73-8.7Z"/><path class="cls-7" d="M155.51,112.79,180.14,156l-13.38,23.5-43-75.44a23.27,23.27,0,0,1,31.74,8.7Z"/><path class="cls-8" d="M278,101a51.53,51.53,0,1,0,28.25,94.61v8.44h23.26V152.53A51.52,51.52,0,0,0,278,101Zm28.21,53a28.25,28.25,0,0,1-56.43,0c0-.47,0-.93,0-1.41s0-1,0-1.45a28.25,28.25,0,0,1,56.43,0c0,.48,0,1,0,1.45S306.25,153.52,306.22,154Z"/><path class="cls-9" d="M471.35,23.32V204.06H448.08V.06A23.27,23.27,0,0,1,471.35,23.32Z"/><line class="cls-10" x1="223.03" y1="121.56" x2="215.27" y2="121.56"/></g></g></svg>